<svg xmlns="http://www.w3.org/2000/svg" viewBox="0 0 90.1 90.2"><defs><style>.cls-1{fill:#dc8029;}.cls-2{fill:#ffe3c5;stroke:#9b5304;stroke-miterlimit:10;stroke-width:0.5px;}</style></defs><title>Facebook button</title><g id="Layer_1" data-name="Layer 1"><circle class="cls-1" cx="44.9" cy="45.2" r="41.3"/><path class="cls-1" d="M90,44.9c0,.4.1.3.1.3C90.1,44.5,90,44.9,90,44.9Z"/><polygon class="cls-1" points="89.2 38 89.3 38.1 89 37.1 89.2 38"/><path class="cls-1" d="M87.8,31.8c0,.6.6,2.2.8,3.4v.2l.2.5C88.5,34.4,88,32.7,87.8,31.8Z"/><path class="cls-1" d="M86.9,28.4c0,.2-.3-.7.3.8v-.1A4.87,4.87,0,0,1,86.9,28.4Z"/><path class="cls-1" d="M87.1,29c.3.7-.1-.4,0,0Z"/><path class="cls-1" d="M85.9,26.2l.4.8c-.1-.2-.4-.9-.2-.6C85.7,25.5,85.7,25.7,85.9,26.2Z"/><path class="cls-1" d="M85.4,25.4l.2.4A.62.62,0,0,0,85.4,25.4Z"/><path class="cls-1" d="M86.1,26.7l-.5-.9c0,.1,0,.2.2.4A2.23,2.23,0,0,1,86.1,26.7Z"/><path class="cls-1" d="M86.3,27.2c.2.5.4,1.1,0,.3a6.07,6.07,0,0,0,.5,1.1A4.42,4.42,0,0,0,86.3,27.2Z"/><path class="cls-1" d="M87.6,31.5c.1.2.1.4.2.6l.2.5a2.54,2.54,0,0,0-.2-.7Z"/><path class="cls-1" d="M83.3,21.2c-.1,0,.1.3.1.4l.4.5A4.38,4.38,0,0,1,83.3,21.2Z"/><path class="cls-1" d="M83.4,21.6l-.6-.8A9.74,9.74,0,0,0,83.4,21.6Z"/><polygon class="cls-1" points="85.2 25.4 86 26.8 85.1 25.1 85.2 25.4"/><polygon class="cls-1" points="81.1 18.1 81.5 18.5 80.8 17.7 81.1 18.1"/><path class="cls-1" d="M79.6,16.1c.3.3-.3-.5,0-.2l-1.3-1.3C78.7,15,79.1,15.5,79.6,16.1Z"/><path class="cls-1" d="M77.7,14l.6.6Z"/><path class="cls-1" d="M81.9,19.4c0-.1-.1-.2-.4-.7l.2.4A1.24,1.24,0,0,1,81.9,19.4Z"/><path class="cls-1" d="M81.7,19h0c-.3-.4-.4-.6-.5-.7A1.79,1.79,0,0,0,81.7,19Z"/><path class="cls-1" d="M84.1,23c-.3-.5-1-1.5-.5-.4C83.9,22.9,83.6,22.3,84.1,23Z"/><path class="cls-1" d="M82.1,19.9a4.05,4.05,0,0,1,.5.9s-.1-.2.1,0A2.36,2.36,0,0,0,82.1,19.9Z"/><polygon class="cls-1" points="81.8 19.5 82.1 19.9 81.9 19.6 81.8 19.5"/><path class="cls-1" d="M78.8,15.4l-1.1-1.1c.4.5.8.9,1.2,1.4C79.1,15.7,79.3,15.9,78.8,15.4Z"/><path class="cls-1" d="M80.3,17.1h0C80.2,17.1,80.2,17.2,80.3,17.1Z"/><polygon class="cls-1" points="73.8 10.5 73.8 10.6 73.9 10.6 73.8 10.5"/><path class="cls-1" d="M79,15.8l.7.7a4.62,4.62,0,0,0-.7-.7Z"/><path class="cls-1" d="M76.6,12.9c.2.2.3.4.5.6A3.17,3.17,0,0,0,76.6,12.9Z"/><path class="cls-1" d="M80.1,16.9c-.1-.2-.3-.3-.4-.4.2.2.3.4.5.6C80.2,17,80.1,17,80.1,16.9Z"/><path class="cls-1" d="M72.1,9.9a6,6,0,0,1,1.8,1.4c.8.6.5,0-.1-.7-.1,0,0,0-.9-.6.3.2,1.7,1.6,1,1a3,3,0,0,0-.9-.7,2.74,2.74,0,0,0-.5-.4c.4.4-1.5-.9-1.3-.6l1,.7Z"/><path class="cls-1" d="M75.3,11.9l.3.3a5.47,5.47,0,0,1-1-1.1c-.6-.5-.7-.5-.7-.5L75.5,12Z"/><path class="cls-1" d="M77,13.5c-.3-.2-1.1-.8-.7-.4.9.9.7.6,1.2,1.1-1.3-1.4.5.5-.5-.7a6,6,0,0,0,.8.8,6,6,0,0,1-.8-.8h.1c0,.1,0,.1-.1,0,.1.1.1,0,0,0-.4-.4,0-.1,0,0a.1.1,0,0,1,.1.1h0c-.5-.5-1-.9-1.5-1.4C75.9,12.5,76.3,12.8,77,13.5Z"/><path class="cls-1" d="M82.9,21.8h0C82.8,21.6,82.8,21.5,82.9,21.8Z"/><path class="cls-1" d="M82.5,21a1.89,1.89,0,0,1,.4.6c.2.4,0,0,0,.1.2.2.6.8.1,0l-.1-.1c-.4-.7-.8-1.7-.8-1.5S82.3,20.5,82.5,21Z"/><path class="cls-1" d="M79.9,17.1a12.67,12.67,0,0,0-1.1-1.3l.5.7v-.1C79.9,17.2,79.8,17,79.9,17.1Z"/><path class="cls-1" d="M73.7,10.4l.2.1a5.58,5.58,0,0,1-.8-.5Z"/><polygon class="cls-1" points="71.9 9 72 9 71.5 8.7 71.9 9"/><path class="cls-1" d="M6.9,67.7l.3.4A1.38,1.38,0,0,0,6.9,67.7Z"/><path class="cls-1" d="M21.2,6.8c-.7.3-1.4.6-1.3.7h.2C20.5,7.2,20.9,7,21.2,6.8Z"/><path class="cls-1" d="M1.1,36.4c0-.1,0-.1.1-.2v-.5A1.7,1.7,0,0,1,1.1,36.4Z"/><path class="cls-1" d="M1.4,37l-.2.9A6.37,6.37,0,0,0,1.4,37Z"/><path class="cls-1" d="M20,81.5c.2.1.3.2.5.2C19.8,81.3,20.1,81.5,20,81.5Z"/><path class="cls-1" d="M51.3.6Q50.4.45,49.8.3A7.44,7.44,0,0,0,51.3.6Z"/><path class="cls-1" d="M5.4,66.9q.3.45.3.3Z"/><path class="cls-1" d="M48,.2h.3a8.08,8.08,0,0,1,1.5.1A10.87,10.87,0,0,0,48,.2Z"/><path class="cls-1" d="M81.5,69.9l.1-.1C81.6,69.7,81.6,69.8,81.5,69.9Z"/><path class="cls-1" d="M89.5,51.2c0,.2-.1.5-.1.8A3.22,3.22,0,0,1,89.5,51.2Z"/><path class="cls-1" d="M64.4,4.4c.4.2,0,.1,0,0Z"/><path class="cls-1" d="M66.2,5.7c-.1,0-.2-.1-.2,0Z"/><path class="cls-1" d="M65,4.8c-.2-.1-.3-.2-.5-.3C64.5,4.6,64.7,4.6,65,4.8Z"/><path class="cls-1" d="M64.9,4.7c.1.1.3.1.4.2Z"/><path class="cls-1" d="M63.8,4.2c.2.1.5.2.7.3a.1.1,0,0,1-.1-.1C64.2,4.4,64.1,4.3,63.8,4.2Z"/><path class="cls-1" d="M50.7,89.2h0C51.3,89,51.1,89.1,50.7,89.2Z"/><path class="cls-1" d="M11.5,16.4a6.94,6.94,0,0,1,1-1.2l-.6.2Z"/><path class="cls-1" d="M11.9,74.5l-.7-.9c1,.9,1.7,1.7,1,.8a7.35,7.35,0,0,1-1.6-1.6C9.9,71.9,9.3,71,9.1,71l-.4-.6c.1.2.2.2.3.4-.8-1.2-.8-.8-1.8-2.4l-.3-.6-.8-1.2c-.2-.4-.1-.3.1.1a12.45,12.45,0,0,1-1-2h0a7.46,7.46,0,0,1-.7-1.2c-.2-.5.2.2.1.1A8.1,8.1,0,0,0,4,62.3c-.1-.3,0-.1.2.1a10.91,10.91,0,0,1,.6,1.1,3.34,3.34,0,0,0-.5-1.2,15.93,15.93,0,0,1-.8-2.1l.4,1.1c-.1-.8-.5-1.6-.8-2.9.1.3.7,2.6.2,1.3a11.41,11.41,0,0,0-.6-1.5,5.6,5.6,0,0,0-.3-1.6h.1c-.3-.9-.3-.8-.5-1.4a3.36,3.36,0,0,1-.2-1.5c-.2-1.7,0,1.2-.3-.8-.1-.7-.2-1.3-.3-1.9a11.69,11.69,0,0,1-.3-2.2c0-1,.1.2.1-.2l-.1-.9v-.1a7.07,7.07,0,0,1-.2-1.2,3.56,3.56,0,0,1,0-1.5,9.46,9.46,0,0,0,.1-2.4c.1-.4.1.2.1.1,0-2,0-1.7.1-3.4l.3-1.4c-.3,1-.2-.3-.1-1.5-.2.5-.2.8-.3,1a12.5,12.5,0,0,1,.3-1.9c.1-.2.1,0,0,.3a.37.37,0,0,1,.1-.3c.2-.6.2-.3.1.2a1.42,1.42,0,0,0-.2.6c0,.5,0,.9.1.8a1.49,1.49,0,0,1,.1-.6v.1a1.76,1.76,0,0,1,.1-.6l.2-.4v-.1l.7-2.3c.1-.4.1-.8.2-1.3s.2-.8.3-1.3c.3-.9.5-1.9,1-3.2-.2.7.1.2.2.3a27.71,27.71,0,0,0-1.2,3.3c.3-.7.3-.5.2-.3l.8-2.4c.1.1.2-.5.6-1-.4.4.7-1.8,1.1-2.7.1,0,0,.2-.5,1.3.7-1.2.5-1.7,1.4-2.8-.2.3-.3.4-.3.5a9.23,9.23,0,0,1,1.1-1.7l-.2.3c.3-.4.6-1,1-1.6s.8-1.1,1.2-1.7a10.48,10.48,0,0,0,1.4-2.2,1.34,1.34,0,0,1-.1.5c.6-1,1.3-2,2-3.1-.1.3,1-.3-.1,1,.4-.3.7-.8,1.4-1.5-.3.2-.8.4-.4.1,1-.7.7-.5,1.9-1.4-.4.3-.1-.2.5-.8-.1.1.2.1,0,.3a17.88,17.88,0,0,1,1.3-1.4c-.4.3.1.2.4,0-.2.1,1.3-1,1.7-1.3l-.7.5c1.8-1.3,1.6-1.5,3.5-2.7-.2.2-.4.6.6,0a15.75,15.75,0,0,0,1.3-1,21.08,21.08,0,0,1,2.2-1.4l.4-.1a8.26,8.26,0,0,1,1.3-.7A10.76,10.76,0,0,0,26,4.9c-.8.5-1.7,1.1-2.2,1.4a4.49,4.49,0,0,0,1.3-.6c.4-.1-.6.4-.9.5L26.8,5c-.1,0,.4-.3.9-.6s1-.4.9-.5a24.37,24.37,0,0,0-2.8,1.4c-.1,0,.3-.3.9-.7A10.91,10.91,0,0,1,27.8,4a5.78,5.78,0,0,1,1.4-.5c.5,0-.3.4-.2.5.2-.1,1.8-.7,2-.8l-.8.4c.5-.2,1-.4,1.4-.6a7.49,7.49,0,0,1,1.6-.4,9.59,9.59,0,0,0,1.5-.3c-.8,0-1-.4-.6-.6a8.74,8.74,0,0,0,1.4-.3c.7-.1,1.4-.1,1.7-.2.8,0-1.1.5-.4.5a3.93,3.93,0,0,0,.6-.2c.5,0-.2.1.9,0,.2-.2,2.2-.3.5-.2A14.32,14.32,0,0,1,41.1,1C40.7.9,42.2.6,43.2.6c-.1,0,.2.1.3.1A7.57,7.57,0,0,0,45,.6c.4,0,.9.1,1.3.1.8.1,1.6.1,2.6.2.2,0,1.1.1.7.2a6.25,6.25,0,0,1,1.2.1c1.2.3-1.4-.2-.5.1a14.58,14.58,0,0,1,2.5.2,14.27,14.27,0,0,0-2.9-.4c0-.2,1.6-.1,3.7.1,1.7.3.7.3,1,.3a24.52,24.52,0,0,0,2.8.6,6.43,6.43,0,0,1,2.4.7c.9.5,0,.2.2.4-.6-.2-1.1-.4-1.6-.6s-.8-.3-1.3-.4l1.1.3c-.4-.1-1.3-.3-1.8-.4a40.21,40.21,0,0,1,7.2,2.7,3.86,3.86,0,0,0,.8.3l-.7-.3c-.6-.4,1.4.5.5.1l1.5.6c.3.1.6.3.9.4l.9.6.2.2A7.17,7.17,0,0,0,66.6,6c.2,0,1.5,1,2.1,1.2l-.8-.6A20.46,20.46,0,0,1,71,8.4a9.23,9.23,0,0,0-.9-.8c.6.6-2.8-1.7-1.8-.9l-1.1-.8c-.4-.2-.8-.5-1.3-.8,0,.1.4.3-.6-.2,0,0-.2,0-.2-.1h0a2.19,2.19,0,0,1,.5.3A21.76,21.76,0,0,1,62.9,4c-.6-.3.3.1,0-.1s-.5-.2-.8-.3c0-.1-1.6-.7-.1-.3l-1.3-.5c-.7-.3-1.8-.7-2.4-.9s-1.6-.3-1-.2L55,1.3h0A30.28,30.28,0,0,0,51.8.7C50.7.6,49.5.3,48.3.2c-.7,0-1.5,0-2.6-.1L45.4,0a29.19,29.19,0,0,0-3.2.1H40.3c-.3,0-.6.1-.9.1-1.2.2-2.4.4-3.2.5V.8a29,29,0,0,0-3.4.9l.1.1c-1.1.3-2.9.9-4.7,1.5a4.65,4.65,0,0,1,.9-.3,9.83,9.83,0,0,0-1.6.5c-.5.2-1,.5-1.6.8-1,.6-2,1-2.9,1.5a3,3,0,0,1-1.1.6.1.1,0,0,0,.1-.1.35.35,0,0,1-.2.1l-.6.3a2.19,2.19,0,0,0,.5-.3c-.3.2-.8.5-1.3.8h-.3a.1.1,0,0,0-.1.1c-.5.3-.4.3-.1.2-.2.2-.4.3-.6.5-.5.2-1.2,1-1.8,1.2-.1.1-.7.6-1.3,1.1a9.11,9.11,0,0,0-1.1,1.2s-.2.1.1-.1a8.64,8.64,0,0,0-1.4,1.3l-.3.1a10.63,10.63,0,0,0-.9,1.1c-.6.6-.9.8-.4.1a34,34,0,0,0-2.1,2.7v-.1A8.34,8.34,0,0,1,9,18.3c-1.1,1-3.9,5.7-5.4,9,.3-.3,0,.1-.2.6s-.5,1-.4,1.1c-.1.2-.3.6-.2.1a14.77,14.77,0,0,0-1.2,3.8c-.1.2,0-.4-.1-.2a3.09,3.09,0,0,1-.2.8c-.1.2,0-.3.1-.6-.5,1.8-.3,2-.2,2.2a2.61,2.61,0,0,0-.3,1.1c0,.3-.1.6-.1,1s-.2.9-.1-.3c-.1.6-.7,3.9-.5,4A4.05,4.05,0,0,0,.2,42C.1,43.5.1,43.6,0,45v-.4c.1.6,0,1.2.1,2.4h0a6.74,6.74,0,0,0,.1,1.9v.5a7.17,7.17,0,0,0,.1,1.3l.1-.2c.2.2.2,2.3.5,3.8v-.6c.2.8.3,2.3.4,3.1,0,.2-.1-.3-.2-.5.4,2.2.2.2.6,1.8,0,.3-.3-.3,0,.7.2.5,1.3,3,1.8,4.4-.1-.3-.2-.6.2,0A26.4,26.4,0,0,0,5.5,67a.31.31,0,0,1,.1.2c.5.7,1.6,2.4,1.9,2.8.2.9,3.4,4.4,3.2,4.4l1.9,2h-.1a13.18,13.18,0,0,0,1.4,1.3,3.47,3.47,0,0,0,.9.6c.3.3,0,.1,0,.1a17,17,0,0,0,3.9,3l.1.2A18.65,18.65,0,0,0,20.7,83c.5.3,1,.7,1.6,1a14,14,0,0,0,1.7.9.77.77,0,0,1-.3-.1c.6.3,1.3.6,2,1a20,20,0,0,0,2.1,1,14.73,14.73,0,0,0,3.1,1,11.63,11.63,0,0,0,1.8.4c-2.3-.6.4-.1-.5-.4.9.2,2.3.7,1.2.4l-.2-.1c-.5.1,2.9.8,2.8.9a49.11,49.11,0,0,0,13.7.7.9.9,0,0,1-.5-.1,7.72,7.72,0,0,0,1.5-.2c.4,0,.6,0-.5.2a4.76,4.76,0,0,0,1.8-.4c2.1-.3-.8.3-.2.2l.9-.1h-.2c.3-.1.6-.1.8-.2s.6-.1,1.2-.3c.8-.2.4,0,.8-.1a2.81,2.81,0,0,0,.5-.1l1.9-.5-.8.1c.8-.3,1.8-.5.9-.4a29,29,0,0,0,4-1.3c1.6-.7,3.1-1.5,3.5-1.6s.5-.3.8-.4.5-.3.8-.5c.5-.3,1.1-.7,1.7-1.1-.3.2-.6.2.5-.5-.1.2.4,0,1-.5A14.51,14.51,0,0,1,72,80.7c-.4.2.3-.3,1-.8s1.2-1.1.6-.7c.8-.7.1,0,.8-.5a52.56,52.56,0,0,0,6-6.3c0-.1-.4.3,0-.2L81.5,71a7.23,7.23,0,0,1,.9-1.4c-.1.1-.3.3-.1-.1a48.35,48.35,0,0,0,6.9-17.3c-.2.8-.1.3,0-.4-.1.4-.1,0-.1.1a23.81,23.81,0,0,0,.5-2.6c-.1-.5.1-2.8,0-3.1V47c-.1-1.1-.4,1.5-.6,1.3v1a5,5,0,0,0-.2,1.2,13.52,13.52,0,0,0-.4,2.9c-.1.4,0-.4-.1-.2a8.5,8.5,0,0,1-.4,2.2v-.1A23.6,23.6,0,0,1,86.8,59c-.2.5-.4,1.1-.7,1.7a16.46,16.46,0,0,1-.9,2.1l.2-.2a4.78,4.78,0,0,1-.6,1.1c-.3.9.9-1.9.7-1.1A28.51,28.51,0,0,0,84,65.4a12,12,0,0,1-1.6,2.5c-.6,1,.3-.2-.3.8l-.1.6-.1.3c-.4.7-.7.9-.8.9a3.11,3.11,0,0,0,.4-.6c-.7.8-1.7,2.3-1.9,2.5l.7-.9c-.5.6-.9,1.3-1.5,2s-1.2,1.3-1.8,2c-.3.3-.6.7-.9,1a9,9,0,0,1-1,.9c-.6.6-1.2,1.1-1.8,1.7l.2-.1a7.3,7.3,0,0,1-1,.9,4.23,4.23,0,0,0-.7.5c-.4.3-.9.6-1.9,1.4l.1-.1a11.07,11.07,0,0,1-1.6,1.1c.5-.4-1.1.6-.4.1-2.2,1.4-1,.8-2.4,1.7l-.4.1a7.58,7.58,0,0,1-1.7.9c.9-.5-.8.3.2-.3-.6.3-1.2.5-1.6.7a11.22,11.22,0,0,1-1.3.5,12.12,12.12,0,0,1-2,.7c-1.1.6,2.3-.7,1.6-.4.6-.1-.9.5-1.7.8s-1.5.2-3.6.7a.6.6,0,0,1,.4-.1l-1.2.3c-.2.1-.4.1-.6.2s-.5.1-.7.1c-.5.2-1.3.2-1.4.4l2-.3a39.79,39.79,0,0,1-4,.8,5.31,5.31,0,0,1,1.1-.3c-.6,0-1,.2-1.6.2.2-.1,2.4-.4,3.6-.7-.6,0-2.3.5-1.7.2a6.52,6.52,0,0,1-1.6.3,7.14,7.14,0,0,0-2,.2l.1-.1c-.2,0-.7.1-1.1.1l.8-.2a12.89,12.89,0,0,1-3.4,0l1.3.1s-.3.1.3.1c-3,0-1.7-.3-5-.4.4,0,1.7.1,1,.2a7.43,7.43,0,0,1-1.8-.3c-2.2-.3.3.1-.6.1a11.24,11.24,0,0,0-2-.2v-.1c-.6-.1-1-.2-1.2-.2h-.4a4.77,4.77,0,0,1-1.3-.3l1,.1L33.7,88H34c-.6-.1-1-.2-1.4-.3a6,6,0,0,1-1.4-.5c.3.2-.2.1-1.3-.3a6.07,6.07,0,0,0-1.1-.5,6.25,6.25,0,0,1,1.4.4c.1,0,.3.1.4.1-.7-.3-1.9-.7-2.5-.9a1.42,1.42,0,0,0,.6.2l-1.1-.3-1.1-.4c-.3-.2,0-.1.2,0-.4-.2-.7-.3-1.3-.6.2,0,.2-.1,1.1.3l-2-.9c-.1-.1-1-.6-.7-.5-1-.7-2.6-1.4-3.9-2.3-.1,0-.2-.1-.5-.3l-1.7-1.4c-.3-.2-.6-.5-.9-.7a8.74,8.74,0,0,0-1-.8l-.7-.8c-1.1-.9.9,1-.9-.5-1.2-1.1-.4-.5-.8-.9a23.06,23.06,0,0,1-2.6-2.7A5.7,5.7,0,0,1,11.9,74.5ZM3.2,59.8c.1.3.4.9.5,1.2A4.33,4.33,0,0,1,3.2,59.8ZM1.9,34a2.65,2.65,0,0,1-.3,1C1.7,34.7,1.8,34.4,1.9,34ZM59.6,2.6h0C58.9,2.3,59.1,2.4,59.6,2.6Zm1.5.6h0a2.6,2.6,0,0,1-.7-.3A6,6,0,0,1,61.1,3.2ZM55.7,88.9l-.3.1C56,88.7,55.9,88.8,55.7,88.9Z"/><path class="cls-1" d="M1.4,36.9a.1.1,0,0,1-.1.1C1.3,37.2,1.3,37.2,1.4,36.9Z"/><path class="cls-1" d="M37.3,1.6h-.6Q36.55,1.75,37.3,1.6Z"/><path class="cls-1" d="M68.6,6.7l-.9-.5c.4.2.6.4.8.5C68.5,6.7,68.4,6.6,68.6,6.7Z"/><path class="cls-1" d="M75.2,12.5l.3.3v-.1C75.1,12.3,74.7,12,75.2,12.5Z"/><path class="cls-1" d="M69.3,7.5a7.35,7.35,0,0,0,1.2.8l-.1-.1A3.79,3.79,0,0,0,69.3,7.5Z"/><path class="cls-1" d="M70.5,8.4a2.18,2.18,0,0,1,.5.4C71.2,8.8,70.9,8.6,70.5,8.4Z"/><path class="cls-1" d="M63,3.8c.3.2.2,0,.4.1S61.3,3.1,63,3.8Z"/><polygon class="cls-1" points="69.6 8 69.4 7.8 69.1 7.6 69.6 8"/><path class="cls-1" d="M64.8,5.2l1,.5a.77.77,0,0,1,.3.1C65.5,5.5,64.8,5.2,64.8,5.2Z"/><path class="cls-1" d="M66.1,5.8a2,2,0,0,0,.8.4C66.7,6.2,66.4,5.9,66.1,5.8Z"/><polygon class="cls-1" points="68.3 7.2 68 7 67.3 6.6 68.3 7.2"/><path class="cls-1" d="M53.5,1.3l-1.2-.2c-.1,0,.2.1.6.1S53.7,1.4,53.5,1.3Z"/><path class="cls-1" d="M57,2.4a2.57,2.57,0,0,1-.5-.2l-.1.1Z"/><path class="cls-1" d="M53.6,1.6c-.1,0-1.8-.2-.2.1C53.4,1.6,54.6,1.8,53.6,1.6Z"/><polygon class="cls-1" points="35.4 1.6 35.7 1.6 35.6 1.4 35.4 1.6"/><path class="cls-1" d="M20.8,8.3c1.2-.7.2-.3,1.3-.9.3-.2-.9.5-.7.3C20.8,8.2,20.4,8.4,20.8,8.3Z"/><path class="cls-1" d="M21.5,7.7a1.38,1.38,0,0,1,.4-.3A1.87,1.87,0,0,0,21.5,7.7Z"/><polygon class="cls-1" points="89.9 47.8 90 46.8 89.9 47.4 89.9 47.8"/><path class="cls-1" d="M89.9,46l.1-.2-.1-.6Z"/><path class="cls-1" d="M2.7,57.3h0a2.64,2.64,0,0,0,.1.7Z"/><polygon class="cls-1" points="7.6 68.6 7.5 68.4 7.6 68.8 7.6 68.6"/><path class="cls-1" d="M14.3,76.6a9.43,9.43,0,0,1-1-1C13.9,76.3,14.3,76.8,14.3,76.6Z"/></g><g id="Layer_3" data-name="Layer 3"><path class="cls-2" d="M55.23,45H48.3V74.34H37.8V45h-5V34.68h5V28c0-4.77,2-12.24,10.59-12.24l7.77,0v10H50.53c-.93,0-2.23.53-2.23,2.81v6.07h7.84Z"/></g></svg>