<svg xmlns="http://www.w3.org/2000/svg" viewBox="0 0 15.45 15.42"><g id="Layer_3" data-name="Layer 3"><g id="Layer_1-2" data-name="Layer 1-2"><circle cx="7.7" cy="7.75" r="7.08" style="fill:#dc8029"/><path d="M15.44,7.7c0,.07,0,0,0,0S15.44,7.7,15.44,7.7Z" style="fill:#dc8029"/><polygon points="15.3 6.52 15.32 6.54 15.27 6.37 15.3 6.52" style="fill:#dc8029"/><path d="M15.06,5.46c0,.1.1.37.14.58v0l0,.09C15.18,5.9,15.09,5.61,15.06,5.46Z" style="fill:#dc8029"/><path d="M14.9,4.87s-.05-.12.06.14V5Z" style="fill:#dc8029"/><path d="M14.73,4.5l.07.13s-.07-.15,0-.1C14.7,4.38,14.7,4.41,14.73,4.5Z" style="fill:#dc8029"/><path d="M14.65,4.36l0,.07A.09.09,0,0,0,14.65,4.36Z" style="fill:#dc8029"/><path d="M14.77,4.58l-.09-.15s0,0,0,.07A.56.56,0,0,1,14.77,4.58Z" style="fill:#dc8029"/><path d="M14.8,4.67c0,.08.07.19,0,0a.82.82,0,0,0,.09.19A.85.85,0,0,0,14.8,4.67Z" style="fill:#dc8029"/><path d="M15,5.4a.45.45,0,0,0,0,.11l0,.08a.27.27,0,0,0,0-.12Z" style="fill:#dc8029"/><path d="M14.29,3.64s0,0,0,.07l.07.08A1.09,1.09,0,0,1,14.29,3.64Z" style="fill:#dc8029"/><path d="M14.3,3.71l-.1-.14Z" style="fill:#dc8029"/><polygon points="14.61 4.36 14.75 4.6 14.6 4.31 14.61 4.36" style="fill:#dc8029"/><polygon points="13.91 3.11 13.98 3.17 13.86 3.04 13.91 3.11" style="fill:#dc8029"/><path d="M13.65,2.76c0,.05-.05-.08,0,0l-.22-.22A1.94,1.94,0,0,1,13.65,2.76Z" style="fill:#dc8029"/><path d="M13.33,2.4l.1.11Z" style="fill:#dc8029"/><path d="M14.05,3.33s0,0-.07-.12l0,.07A.1.1,0,0,1,14.05,3.33Z" style="fill:#dc8029"/><path d="M14,3.26h0l-.08-.12A.36.36,0,0,0,14,3.26Z" style="fill:#dc8029"/><path d="M14.42,4c-.05-.09-.17-.26-.08-.07S14.34,3.83,14.42,4Z" style="fill:#dc8029"/><path d="M14.08,3.41a.51.51,0,0,1,.09.16s0,0,0,0A.39.39,0,0,0,14.08,3.41Z" style="fill:#dc8029"/><polygon points="14.03 3.35 14.08 3.42 14.05 3.36 14.03 3.35" style="fill:#dc8029"/><path d="M13.52,2.64l-.19-.19.2.24S13.6,2.73,13.52,2.64Z" style="fill:#dc8029"/><path d="M13.77,2.93h0S13.76,3,13.77,2.93Z" style="fill:#dc8029"/><polygon points="12.66 1.8 12.66 1.82 12.68 1.82 12.66 1.8" style="fill:#dc8029"/><path d="M13.55,2.71l.12.12Z" style="fill:#dc8029"/><path d="M13.14,2.21l.08.11A.44.44,0,0,0,13.14,2.21Z" style="fill:#dc8029"/><path d="M13.74,2.9a.46.46,0,0,0-.07-.07.43.43,0,0,0,.09.1S13.74,2.92,13.74,2.9Z" style="fill:#dc8029"/><path d="M12.37,1.7a1.18,1.18,0,0,1,.31.24c.13.1.08,0,0-.12s0,0-.16-.1c.06,0,.3.27.18.17a.61.61,0,0,0-.16-.12.27.27,0,0,0-.08-.07c.06.07-.26-.15-.23-.1l.17.12Z" style="fill:#dc8029"/><path d="M12.92,2l.05,0a.58.58,0,0,1-.17-.18l-.12-.09.27.24Z" style="fill:#dc8029"/><path d="M13.21,2.32c-.05,0-.19-.14-.12-.07s.12.1.2.19c-.22-.24.09.08-.08-.12a.8.8,0,0,0,.13.13.8.8,0,0,1-.13-.13h0s0,0,0,0,0,0,0,0,0,0,0,0,0,0,0,0h0c-.08-.08-.17-.15-.25-.24C13,2.15,13.09,2.2,13.21,2.32Z" style="fill:#dc8029"/><path d="M14.22,3.74h0S14.2,3.69,14.22,3.74Z" style="fill:#dc8029"/><path d="M14.15,3.6a.41.41,0,0,1,.07.11c0,.06,0,0,0,0s.1.14,0,0h0c-.07-.12-.14-.3-.14-.26S14.12,3.52,14.15,3.6Z" style="fill:#dc8029"/><path d="M13.7,2.93l-.18-.22.08.12v0C13.7,3,13.69,2.92,13.7,2.93Z" style="fill:#dc8029"/><path d="M12.64,1.79h0l-.14-.08Z" style="fill:#dc8029"/><polygon points="12.33 1.54 12.35 1.54 12.26 1.49 12.33 1.54" style="fill:#dc8029"/><path d="M1.18,11.61l.05.07Z" style="fill:#dc8029"/><path d="M3.64,1.17c-.12.05-.24.1-.23.12h0Z" style="fill:#dc8029"/><path d="M.19,6.24l0,0V6.12A.37.37,0,0,1,.19,6.24Z" style="fill:#dc8029"/><path d="M.24,6.35l0,.15Z" style="fill:#dc8029"/><path d="M3.43,14a.14.14,0,0,0,.09,0C3.4,14,3.45,14,3.43,14Z" style="fill:#dc8029"/><path d="M8.8.1l-.26,0A.8.8,0,0,0,8.8.1Z" style="fill:#dc8029"/><path d="M.93,11.48s0,.06,0,0Z" style="fill:#dc8029"/><path d="M8.23,0h0a1.11,1.11,0,0,1,.26,0A1.58,1.58,0,0,0,8.23,0Z" style="fill:#dc8029"/><path d="M14,12l0,0Z" style="fill:#dc8029"/><path d="M15.35,8.78s0,.09,0,.14A.68.68,0,0,1,15.35,8.78Z" style="fill:#dc8029"/><path d="M11.35,1s0,0,0,0Z" style="fill:#dc8029"/><path d="M11.15.82s-.05,0-.09,0S11.1.79,11.15.82Z" style="fill:#dc8029"/><path d="M11.13.81s0,0,.07,0Z" style="fill:#dc8029"/><path d="M10.94.72l.12.05s0,0,0,0S11,.74,10.94.72Z" style="fill:#dc8029"/><path d="M8.7,15.3Z" style="fill:#dc8029"/><path d="M2,2.81a1.63,1.63,0,0,1,.17-.2l-.1,0Z" style="fill:#dc8029"/><path d="M2,12.78l-.12-.15c.17.15.29.29.17.13a1.15,1.15,0,0,1-.27-.27c-.12-.16-.22-.31-.26-.31l-.07-.1s0,0,.05.06c-.13-.2-.13-.13-.31-.41l-.05-.1-.13-.21c0-.06,0-.05,0,0a3.59,3.59,0,0,1-.17-.34h0l-.12-.21c0-.08,0,0,0,0a1.47,1.47,0,0,0-.1-.22s0,0,0,0l.1.19a.5.5,0,0,0-.08-.2,2.67,2.67,0,0,1-.14-.36l.07.19c0-.14-.09-.28-.14-.5,0,.05.12.44,0,.22S.5,10.07.46,10a.86.86,0,0,0-.05-.27h0a1.82,1.82,0,0,0-.09-.24.57.57,0,0,1,0-.26c0-.29,0,.21,0-.14,0-.12,0-.22-.05-.32a2.5,2.5,0,0,1-.06-.38c0-.17,0,0,0,0l0-.16h0L.12,8a.57.57,0,0,1,0-.26,1.85,1.85,0,0,0,0-.41c0-.07,0,0,0,0a5.43,5.43,0,0,1,0-.59l0-.24c0,.18,0-.05,0-.25,0,.08,0,.13-.06.17a1.91,1.91,0,0,1,.06-.33s0,0,0,0,0,0,0,0,0-.05,0,0a.17.17,0,0,0,0,.1c0,.09,0,.15,0,.14a.43.43,0,0,1,0-.11v0a.36.36,0,0,1,0-.1l0-.07v0l.12-.39c0-.07,0-.14,0-.22a1.89,1.89,0,0,1,0-.23c.05-.15.08-.32.17-.55,0,.12,0,0,0,.06a3.73,3.73,0,0,0-.2.56c.05-.12.05-.08,0,0l.14-.41s0-.09.1-.17C.7,4.74.89,4.36,1,4.2c0,0,0,0-.09.23C1,4.22,1,4.13,1.11,4c0,0-.05.06-.05.08a2.9,2.9,0,0,1,.19-.29l0,0c.05-.07.1-.17.17-.27s.14-.19.21-.29a3,3,0,0,0,.24-.38.19.19,0,0,1,0,.08c.1-.17.22-.34.34-.53,0,.05.17,0,0,.17a3.12,3.12,0,0,0,.24-.25s-.13.07-.06,0l.32-.24c-.07.06,0,0,.09-.13s0,0,0,0A1.7,1.7,0,0,1,3,1.77c-.07.05,0,0,.07,0s.22-.17.29-.22l-.12.08a6.8,6.8,0,0,1,.6-.46s-.07.1.1,0L4.12,1A2.92,2.92,0,0,1,4.49.76l.07,0A1,1,0,0,1,4.79.62a1.9,1.9,0,0,0-.33.22l-.38.24A.67.67,0,0,0,4.31,1c.06,0-.11.07-.16.08L4.6.86s.07,0,.15-.1.17-.07.16-.09a3.58,3.58,0,0,0-.48.24s.05-.05.15-.12l.19-.1A.85.85,0,0,1,5,.6c.08,0,0,.07,0,.09L5.32.55,5.18.62l.24-.1A.9.9,0,0,1,5.69.45L6,.4c-.14,0-.17-.07-.1-.11a1,1,0,0,0,.24,0l.29,0c.14,0-.19.08-.07.08l.1,0c.09,0,0,0,.16,0,0,0,.38-.05.08,0l.4,0C7,.16,7.24.1,7.41.1l0,0a1.14,1.14,0,0,0,.26,0l.22,0,.45,0s.19,0,.12,0a.65.65,0,0,1,.2,0c.21.05-.24,0-.08,0a2.15,2.15,0,0,1,.43,0,2.87,2.87,0,0,0-.5-.07,1.86,1.86,0,0,1,.63,0c.29.05.12.05.17.05a3.86,3.86,0,0,0,.49.1,1.21,1.21,0,0,1,.41.12c.15.09,0,0,0,.07L10,.45A1,1,0,0,0,9.79.38l.19,0L9.67.36a7.68,7.68,0,0,1,1.24.46.59.59,0,0,0,.14.06L10.93.82c-.11-.06.24.09.08,0l.26.1a1,1,0,0,0,.15.07l.16.11,0,0A.76.76,0,0,0,11.42,1s.26.17.36.21l-.13-.11a4.07,4.07,0,0,1,.53.31L12,1.3c.11.11-.48-.29-.31-.15L11.53,1,11.3.88s.07.05-.1,0c0,0,0,0,0,0h0l.08.06L10.79.69c-.1,0,.05,0,0,0L10.65.62s-.27-.12,0-.05L10.41.48,10,.33a.77.77,0,0,0-.17,0L9.43.22h0L8.88.12C8.7.1,8.49.05,8.28,0a3.8,3.8,0,0,1-.44,0l0,0a5,5,0,0,0-.55,0H6.91L6.76,0,6.21.12v0a5.47,5.47,0,0,0-.58.15v0c-.19,0-.49.15-.8.26L5,.52,4.72.6,4.44.74c-.17.1-.34.17-.5.26a.52.52,0,0,1-.18.1s0,0,0,0h0l0,0-.1,0,.08,0-.22.14h0s0,0,0,0h0c-.09.05-.07.05,0,0l-.1.08c-.09,0-.21.18-.31.21l-.22.19a1.8,1.8,0,0,0-.19.2h0a1.26,1.26,0,0,0-.24.22l-.05,0a1.46,1.46,0,0,0-.16.19c-.1.1-.15.13-.07,0a5.32,5.32,0,0,0-.36.47v0a1.32,1.32,0,0,1-.19.29A7.08,7.08,0,0,0,.62,4.68c.05,0,0,0,0,.11S.5,5,.51,5s0,.1,0,0a2.6,2.6,0,0,0-.21.65s0-.06,0,0a.74.74,0,0,1,0,.14s0,0,0-.11C.15,6,.19,6,.21,6a.42.42,0,0,0-.06.19s0,.1,0,.17,0,.16,0,0A4.09,4.09,0,0,0,0,7a.6.6,0,0,1,0,.19c0,.25,0,.27,0,.51V7.65c0,.1,0,.21,0,.41H0a1.22,1.22,0,0,0,0,.33v.08a1.79,1.79,0,0,0,0,.23l0,0s0,.4.08.65v-.1a3.35,3.35,0,0,1,.07.53s0-.05,0-.08c.07.38,0,0,.1.31,0,0,0-.05,0,.12s.22.51.31.75c0-.05,0-.1,0,0a4.85,4.85,0,0,0,.31.65.05.05,0,0,1,0,0c.09.12.27.41.33.48a7,7,0,0,0,.55.75l.32.35h0l.24.22a.54.54,0,0,0,.16.1c0,.05,0,0,0,0a3,3,0,0,0,.67.51v0l.33.24c.09,0,.17.12.27.17l.3.15H4.06a3.7,3.7,0,0,1,.35.17,3,3,0,0,0,.36.17,2.52,2.52,0,0,0,.53.17l.31.07c-.4-.1.07,0-.09-.07.16,0,.4.12.21.07l0,0c-.08,0,.5.14.48.16a8.44,8.44,0,0,0,2.35.12l-.08,0a2.3,2.3,0,0,0,.26,0c.06,0,.1,0-.09,0a.82.82,0,0,0,.31-.07c.36-.05-.14,0,0,0l.16,0H9a.84.84,0,0,0,.14,0,1.12,1.12,0,0,0,.21,0c.13,0,.07,0,.13,0l.09,0,.33-.09-.14,0c.14-.05.31-.09.15-.07a5.05,5.05,0,0,0,.69-.22c.27-.12.53-.26.6-.28s.09-.05.14-.07a.57.57,0,0,0,.13-.08l.3-.19c-.06,0-.11,0,.08-.09,0,0,.07,0,.17-.08l.33-.21c-.07,0,.05-.05.17-.13s.21-.19.1-.12c.14-.12,0,0,.14-.09a8.77,8.77,0,0,0,1-1.08s-.07.05,0,0l.19-.21a1,1,0,0,1,.15-.24s-.05.05,0,0A8.34,8.34,0,0,0,15.3,9c0,.14,0,.06,0-.06,0,.06,0,0,0,0a3.12,3.12,0,0,0,.09-.44c0-.09,0-.48,0-.53v.13c0-.19-.07.26-.1.23v.17a.65.65,0,0,0,0,.2,2.87,2.87,0,0,0-.07.5c0,.07,0-.07,0,0a1.61,1.61,0,0,1-.07.37h0a5,5,0,0,1-.19.63c0,.09-.07.19-.12.29a3,3,0,0,1-.16.36l0,0a.72.72,0,0,1-.11.19c0,.15.16-.33.12-.19a3.62,3.62,0,0,0-.25.48,2.44,2.44,0,0,1-.28.43c-.1.17,0,0-.05.13l0,.11v0c-.07.12-.12.15-.14.15A.36.36,0,0,0,14,12c-.12.14-.29.4-.33.43l.12-.16c-.08.11-.15.23-.25.35s-.21.22-.31.34l-.16.17a1.29,1.29,0,0,1-.17.16l-.31.29,0,0-.17.16a.36.36,0,0,0-.12.08A3.74,3.74,0,0,0,12,14l0,0a1.26,1.26,0,0,1-.28.19c.09-.07-.19.11-.07,0-.37.24-.17.14-.41.29l-.07,0a1.59,1.59,0,0,1-.29.15c.16-.08-.14.05,0,0l-.28.12a2,2,0,0,1-.22.09,2.3,2.3,0,0,1-.34.12c-.19.1.39-.12.27-.07.1,0-.15.08-.29.14s-.26,0-.62.12a.1.1,0,0,1,.07,0l-.21,0-.1,0H9.09c-.09,0-.22,0-.24.07l.34-.05c-.22.06-.45.1-.68.14a.59.59,0,0,1,.19-.05c-.11,0-.18,0-.28,0s.41-.07.62-.12c-.1,0-.4.09-.29,0a1.27,1.27,0,0,1-.28.06,1,1,0,0,0-.34,0l0,0-.19,0,.14,0a2.91,2.91,0,0,1-.59,0h.23s-.06,0,0,0c-.52,0-.29,0-.86-.07.07,0,.29,0,.17,0a1.7,1.7,0,0,1-.31-.06c-.38,0,0,0-.1,0a2,2,0,0,0-.34,0v0l-.21,0H6.07a.9.9,0,0,1-.22-.06l.17,0-.24-.08h0L5.59,15A.75.75,0,0,1,5.35,15c.05,0,0,0-.22-.05a.66.66,0,0,0-.19-.09,1.09,1.09,0,0,1,.24.07l.07,0c-.12-.06-.33-.12-.43-.16l.1,0-.19-.06-.18-.06c-.06,0,0,0,0,0l-.22-.11s0,0,.19,0l-.35-.15s-.17-.1-.12-.09c-.17-.12-.44-.24-.67-.39l-.08-.05L3,13.69l-.16-.12-.17-.14-.12-.14c-.19-.15.15.18-.15-.08s-.07-.09-.14-.16a3.92,3.92,0,0,1-.45-.46A.86.86,0,0,1,2,12.78ZM.55,10.26a1.67,1.67,0,0,1,.08.2A1.19,1.19,0,0,1,.55,10.26ZM.33,5.83A.49.49,0,0,1,.27,6,1.62,1.62,0,0,0,.33,5.83ZM10.22.45h0C10.1.4,10.14.41,10.22.45Zm.26.1h0L10.36.5Zm-.93,14.7-.05,0Z" style="fill:#dc8029"/><path d="M.24,6.33l0,0S.22,6.38.24,6.33Z" style="fill:#dc8029"/><path d="M6.4.28h0Z" style="fill:#dc8029"/><path d="M11.77,1.15l-.16-.09.14.09S11.73,1.13,11.77,1.15Z" style="fill:#dc8029"/><path d="M12.9,2.15l0,.05v0C12.88,2.11,12.81,2.06,12.9,2.15Z" style="fill:#dc8029"/><path d="M11.89,1.29a.86.86,0,0,0,.2.13h0A.57.57,0,0,0,11.89,1.29Z" style="fill:#dc8029"/><path d="M12.09,1.44l.09.07S12.16,1.48,12.09,1.44Z" style="fill:#dc8029"/><path d="M10.81.65s0,0,.06,0S10.51.53,10.81.65Z" style="fill:#dc8029"/><polygon points="11.94 1.37 11.9 1.34 11.85 1.3 11.94 1.37" style="fill:#dc8029"/><path d="M11.11.89l.18.09.05,0Z" style="fill:#dc8029"/><path d="M11.34,1a.31.31,0,0,0,.13.06S11.39,1,11.34,1Z" style="fill:#dc8029"/><polygon points="11.71 1.24 11.66 1.2 11.54 1.13 11.71 1.24" style="fill:#dc8029"/><path d="M9.18.22,9,.19s0,0,.1,0S9.21.24,9.18.22Z" style="fill:#dc8029"/><path d="M9.78.41l-.09,0,0,0Z" style="fill:#dc8029"/><path d="M9.19.28s-.31,0,0,0C9.16.28,9.36.31,9.19.28Z" style="fill:#dc8029"/><polygon points="6.07 0.28 6.12 0.28 6.11 0.24 6.07 0.28" style="fill:#dc8029"/><path d="M3.57,1.42c.2-.12,0,0,.22-.15s-.15.09-.12.05S3.5,1.44,3.57,1.42Z" style="fill:#dc8029"/><path d="M3.69,1.32a.18.18,0,0,1,.07-.05A.18.18,0,0,0,3.69,1.32Z" style="fill:#dc8029"/><polygon points="15.42 8.2 15.44 8.03 15.42 8.13 15.42 8.2" style="fill:#dc8029"/><path d="M15.42,7.89l0,0,0-.11Z" style="fill:#dc8029"/><path d="M.46,9.83h0a.5.5,0,0,0,0,.12Z" style="fill:#dc8029"/><polygon points="1.3 11.77 1.29 11.73 1.3 11.8 1.3 11.77" style="fill:#dc8029"/><path d="M2.45,13.14,2.28,13C2.38,13.09,2.45,13.17,2.45,13.14Z" style="fill:#dc8029"/></g><polygon points="5.52 13.55 5.57 14.05 5.82 14.22 6.06 14.17 6.26 13.83 5.52 13.55" style="fill:#ffe3c5"/><path d="M14.74,7.81c0,3.75-3,6.42-6.9,6.42A7.21,7.21,0,0,1,1.4,7.81C1,4.08,4.44,1,8.2,1A6.58,6.58,0,0,1,14.74,7.81Z" style="fill:#ffe3c5"/><path d="M8,.93A6.8,6.8,0,0,0,5.56,14.06a6.73,6.73,0,0,1,0-2c.12-.53.8-3.38.8-3.38a2.41,2.41,0,0,1-.21-1c0-1,.55-1.65,1.23-1.65A.85.85,0,0,1,8.27,7a13.76,13.76,0,0,1-.56,2.27,1,1,0,0,0,1,1.23c1.2,0,2.13-1.28,2.13-3.12A2.68,2.68,0,0,0,8,4.64a2.94,2.94,0,0,0-3.07,3,2.66,2.66,0,0,0,.51,1.55.21.21,0,0,1,0,.19c0,.22-.17.68-.19.77s-.1.16-.23.1A3.06,3.06,0,0,1,3.7,7.56c0-2.14,1.56-4.11,4.49-4.11a4,4,0,0,1,4.19,3.92c0,2.35-1.47,4.23-3.52,4.23a1.83,1.83,0,0,1-1.56-.78s-.34,1.3-.43,1.62A7.31,7.31,0,0,1,6,14.22a6.7,6.7,0,0,0,2,.3A6.8,6.8,0,1,0,8,.93Z" style="fill:#dc8029"/><path d="M5.56,14.06a6.73,6.73,0,0,1,0-2c.12-.53.8-3.38.8-3.38a2.41,2.41,0,0,1-.21-1c0-1,.55-1.65,1.23-1.65A.85.85,0,0,1,8.27,7a13.76,13.76,0,0,1-.56,2.27,1,1,0,0,0,1,1.23c1.2,0,2.13-1.28,2.13-3.12A2.68,2.68,0,0,0,8,4.64a2.94,2.94,0,0,0-3.07,3,2.66,2.66,0,0,0,.51,1.55.21.21,0,0,1,0,.19c0,.22-.17.68-.19.77s-.1.16-.23.1A3.06,3.06,0,0,1,3.7,7.56c0-2.14,1.56-4.11,4.49-4.11a4,4,0,0,1,4.19,3.92c0,2.35-1.47,4.23-3.52,4.23a1.83,1.83,0,0,1-1.56-.78s-.34,1.3-.43,1.62A7.31,7.31,0,0,1,6,14.22C5.84,14.23,5.84,14.23,5.56,14.06Z" style="fill:none;stroke:#9b5304;stroke-miterlimit:10;stroke-width:0.097765440090314px"/></g></svg>